# xmcd
#
# Track frame offsets: 
#        182
#        18775
#        38657
#        62852
#        83612
#        97865
#        123577
#        147790
#        163155
#        180377
#        204907
#        222545
#        239602
#        258907
#        283827
#        298505
#        322132
#        336935
#
# Disc length: 4764 seconds
#
# Revision: 3
# Processed by: cddbd v1.4PL0 Copyright (c) Steve Scherf et al.
# Submitted via: ExactAudioCopy v0.90b3
#
DISCID=0a129a12
DTITLE=Hall and Oates - Starting All Over Again [CD2 of 2)
DYEAR=1997
DGENRE=Pop
TTITLE0=Starting All Over Again
TTITLE1=Everywhere I Look
TTITLE2=Everytime You Go Away
TTITLE3=You've Lost That Lovin' Feeling
TTITLE4=You Make My Dreams
TTITLE5=Change Of Season
TTITLE6=Adult Education
TTITLE7=Back Together Again
TTITLE8=Kerry
TTITLE9=Some Things Are Better Left Unsaid
TTITLE10=I Ain't Gonna Take It This Time
TTITLE11=I Don't Wanna Lose You
TTITLE12=Say It Isn't So
TTITLE13=Someone Like You
TTITLE14=Guessing Games
TTITLE15=She's Gone
TTITLE16=Italian Girls
TTITLE17=Do What You Want Be What You Are
EXTD=Australian Import
EXTT0=
EXTT1=
EXTT2=
EXTT3=
EXTT4=
EXTT5=
EXTT6=
EXTT7=
EXTT8=
EXTT9=
EXTT10=
EXTT11=
EXTT12=
EXTT13=
EXTT14=
EXTT15=
EXTT16=
EXTT17=
PLAYORDER=
